<svg class="border shadow-md" viewBox="0 0 1351.68 760.32" style="width: 1351.68px; height: 760.32px;" xmlns="http://www.w3.org/2000/svg" preserveAspectRatio="none"><rect class="bg" id="bg" x="0" y="0" width="1351.68" height="760.32" fill="#ffffff"/><path d="M 0 -47.52 L 0 -47.52&#10;                L 139.00 -3.52&#10;                L 225.28 -47.52 L 225.28 -47.52&#10;                L 381.28 -23.76&#10;                L 450.56 -47.52 L 450.56 -47.52&#10;                L 563.56 -4.52&#10;                L 675.84 -47.52 L 675.84 -47.52&#10;                L 750.93 -13.52&#10;                L 901.12 -47.52 L 901.12 -47.52&#10;                L 1043.12 -23.76&#10;                L 1126.4 -47.52 L 1126.4 -47.52&#10;                L 1225.40 -5.52&#10;                L 1351.68 -47.52 L 1351.68 -47.52&#10;                L 1446.68 -0.52&#10;                L 1576.96 -47.52  V 760.32 H 0 V -47.52 Z" fill="#003162"/><path d="M 0 0 L 0 0.00&#10;                L 75.09 23.76&#10;                L 225.28 0.00 L 225.28 0.00&#10;                L 300.37 23.76&#10;                L 450.56 0.00 L 450.56 0.00&#10;                L 618.56 37.00&#10;                L 675.84 0.00 L 675.84 0.00&#10;                L 750.93 23.76&#10;                L 901.12 0.00 L 901.12 0.00&#10;                L 976.21 32.00&#10;                L 1126.4 0.00 L 1126.4 0.00&#10;                L 1272.40 47.00&#10;                L 1351.68 0.00 L 1351.68 0.00&#10;                L 1457.68 23.76&#10;                L 1576.96 0.00  V 760.32 H 0 V 0.00 Z" fill="#002e5c"/><path d="M 0 47.52 L 0 47.52&#10;                L 75.09 71.28&#10;                L 225.28 47.52 L 225.28 47.52&#10;                L 316.28 71.28&#10;                L 450.56 47.52 L 450.56 47.52&#10;                L 525.65 74.52&#10;                L 675.84 47.52 L 675.84 47.52&#10;                L 781.84 71.28&#10;                L 901.12 47.52 L 901.12 47.52&#10;                L 976.21 71.28&#10;                L 1126.4 47.52 L 1126.4 47.52&#10;                L 1231.40 71.28&#10;                L 1351.68 47.52 L 1351.68 47.52&#10;                L 1492.68 71.28&#10;                L 1576.96 47.52  V 760.32 H 0 V 47.52 Z" fill="#002b56"/><path d="M 0 95.04 L 0 95.04&#10;                L 75.09 133.04&#10;                L 225.28 95.04 L 225.28 95.04&#10;                L 300.37 136.04&#10;                L 450.56 95.04 L 450.56 95.04&#10;                L 542.56 131.04&#10;                L 675.84 95.04 L 675.84 95.04&#10;                L 750.93 136.04&#10;                L 901.12 95.04 L 901.12 95.04&#10;                L 976.21 123.04&#10;                L 1126.4 95.04 L 1126.4 95.04&#10;                L 1280.40 118.80&#10;                L 1351.68 95.04 L 1351.68 95.04&#10;                L 1462.68 137.04&#10;                L 1576.96 95.04  V 760.32 H 0 V 95.04 Z" fill="#002850"/><path d="M 0 142.56 L 0 142.56&#10;                L 86.00 177.56&#10;                L 225.28 142.56 L 225.28 142.56&#10;                L 300.37 166.56&#10;                L 450.56 142.56 L 450.56 142.56&#10;                L 525.65 188.56&#10;                L 675.84 142.56 L 675.84 142.56&#10;                L 829.84 166.32&#10;                L 901.12 142.56 L 901.12 142.56&#10;                L 1050.12 166.32&#10;                L 1126.4 142.56 L 1126.4 142.56&#10;                L 1201.49 179.56&#10;                L 1351.68 142.56 L 1351.68 142.56&#10;                L 1455.68 169.56&#10;                L 1576.96 142.56  V 760.32 H 0 V 142.56 Z" fill="#00254a"/><path d="M 0 190.08 L 0 190.08&#10;                L 139.00 213.84&#10;                L 225.28 190.08 L 225.28 190.08&#10;                L 300.37 213.84&#10;                L 450.56 190.08 L 450.56 190.08&#10;                L 606.56 213.84&#10;                L 675.84 190.08 L 675.84 190.08&#10;                L 820.84 213.84&#10;                L 901.12 190.08 L 901.12 190.08&#10;                L 976.21 224.08&#10;                L 1126.4 190.08 L 1126.4 190.08&#10;                L 1201.49 236.08&#10;                L 1351.68 190.08 L 1351.68 190.08&#10;                L 1491.68 213.84&#10;                L 1576.96 190.08  V 760.32 H 0 V 190.08 Z" fill="#002244"/><path d="M 0 237.60000000000002 L 0 237.60&#10;                L 150.00 275.60&#10;                L 225.28 237.60 L 225.28 237.60&#10;                L 322.28 267.60&#10;                L 450.56 237.60 L 450.56 237.60&#10;                L 596.56 261.36&#10;                L 675.84 237.60 L 675.84 237.60&#10;                L 843.84 279.60&#10;                L 901.12 237.60 L 901.12 237.60&#10;                L 976.21 272.60&#10;                L 1126.4 237.60 L 1126.4 237.60&#10;                L 1221.40 273.60&#10;                L 1351.68 237.60 L 1351.68 237.60&#10;                L 1426.77 283.60&#10;                L 1576.96 237.60  V 760.32 H 0 V 237.60 Z" fill="#001f3e"/><path d="M 0 285.12 L 0 285.12&#10;                L 75.09 308.88&#10;                L 225.28 285.12 L 225.28 285.12&#10;                L 358.28 309.12&#10;                L 450.56 285.12 L 450.56 285.12&#10;                L 525.65 332.12&#10;                L 675.84 285.12 L 675.84 285.12&#10;                L 763.84 308.88&#10;                L 901.12 285.12 L 901.12 285.12&#10;                L 976.21 319.12&#10;                L 1126.4 285.12 L 1126.4 285.12&#10;                L 1256.40 308.88&#10;                L 1351.68 285.12 L 1351.68 285.12&#10;                L 1426.77 326.12&#10;                L 1576.96 285.12  V 760.32 H 0 V 285.12 Z" fill="#001c38"/><path d="M 0 332.64000000000004 L 0 332.64&#10;                L 141.00 356.40&#10;                L 225.28 332.64 L 225.28 332.64&#10;                L 300.37 367.64&#10;                L 450.56 332.64 L 450.56 332.64&#10;                L 536.56 356.40&#10;                L 675.84 332.64 L 675.84 332.64&#10;                L 750.93 379.64&#10;                L 901.12 332.64 L 901.12 332.64&#10;                L 976.21 376.64&#10;                L 1126.4 332.64 L 1126.4 332.64&#10;                L 1201.49 356.40&#10;                L 1351.68 332.64 L 1351.68 332.64&#10;                L 1426.77 363.64&#10;                L 1576.96 332.64  V 760.32 H 0 V 332.64 Z" fill="#001932"/><path d="M 0 380.16 L 0 380.16&#10;                L 139.00 410.16&#10;                L 225.28 380.16 L 225.28 380.16&#10;                L 339.28 426.16&#10;                L 450.56 380.16 L 450.56 380.16&#10;                L 525.65 409.16&#10;                L 675.84 380.16 L 675.84 380.16&#10;                L 750.93 403.92&#10;                L 901.12 380.16 L 901.12 380.16&#10;                L 976.21 406.16&#10;                L 1126.4 380.16 L 1126.4 380.16&#10;                L 1201.49 422.16&#10;                L 1351.68 380.16 L 1351.68 380.16&#10;                L 1484.68 407.16&#10;                L 1576.96 380.16  V 760.32 H 0 V 380.16 Z" fill="#00162c"/><path d="M 0 427.68 L 0 427.68&#10;                L 100.00 461.68&#10;                L 225.28 427.68 L 225.28 427.68&#10;                L 327.28 451.44&#10;                L 450.56 427.68 L 450.56 427.68&#10;                L 607.56 451.44&#10;                L 675.84 427.68 L 675.84 427.68&#10;                L 809.84 457.68&#10;                L 901.12 427.68 L 901.12 427.68&#10;                L 1049.12 459.68&#10;                L 1126.4 427.68 L 1126.4 427.68&#10;                L 1201.49 465.68&#10;                L 1351.68 427.68 L 1351.68 427.68&#10;                L 1426.77 457.68&#10;                L 1576.96 427.68  V 760.32 H 0 V 427.68 Z" fill="#001326"/><path d="M 0 475.20000000000005 L 0 475.20&#10;                L 132.00 498.96&#10;                L 225.28 475.20 L 225.28 475.20&#10;                L 300.37 510.20&#10;                L 450.56 475.20 L 450.56 475.20&#10;                L 525.65 498.96&#10;                L 675.84 475.20 L 675.84 475.20&#10;                L 797.84 513.20&#10;                L 901.12 475.20 L 901.12 475.20&#10;                L 976.21 498.96&#10;                L 1126.4 475.20 L 1126.4 475.20&#10;                L 1201.49 517.20&#10;                L 1351.68 475.20 L 1351.68 475.20&#10;                L 1426.77 500.20&#10;                L 1576.96 475.20  V 760.32 H 0 V 475.20 Z" fill="#001020"/><path d="M 0 522.72 L 0 522.72&#10;                L 75.09 546.48&#10;                L 225.28 522.72 L 225.28 522.72&#10;                L 300.37 546.48&#10;                L 450.56 522.72 L 450.56 522.72&#10;                L 525.65 568.72&#10;                L 675.84 522.72 L 675.84 522.72&#10;                L 750.93 547.72&#10;                L 901.12 522.72 L 901.12 522.72&#10;                L 1007.12 546.48&#10;                L 1126.4 522.72 L 1126.4 522.72&#10;                L 1280.40 550.72&#10;                L 1351.68 522.72 L 1351.68 522.72&#10;                L 1426.77 556.72&#10;                L 1576.96 522.72  V 760.32 H 0 V 522.72 Z" fill="#000d1a"/><path d="M 0 570.24 L 0 570.24&#10;                L 75.09 594.00&#10;                L 225.28 570.24 L 225.28 570.24&#10;                L 300.37 614.24&#10;                L 450.56 570.24 L 450.56 570.24&#10;                L 525.65 600.24&#10;                L 675.84 570.24 L 675.84 570.24&#10;                L 843.84 594.00&#10;                L 901.12 570.24 L 901.12 570.24&#10;                L 976.21 594.00&#10;                L 1126.4 570.24 L 1126.4 570.24&#10;                L 1222.40 617.24&#10;                L 1351.68 570.24 L 1351.68 570.24&#10;                L 1426.77 594.00&#10;                L 1576.96 570.24  V 760.32 H 0 V 570.24 Z" fill="#000a14"/><path d="M 0 617.76 L 0 617.76&#10;                L 140.00 662.76&#10;                L 225.28 617.76 L 225.28 617.76&#10;                L 300.37 641.52&#10;                L 450.56 617.76 L 450.56 617.76&#10;                L 599.56 641.52&#10;                L 675.84 617.76 L 675.84 617.76&#10;                L 750.93 647.76&#10;                L 901.12 617.76 L 901.12 617.76&#10;                L 976.21 645.76&#10;                L 1126.4 617.76 L 1126.4 617.76&#10;                L 1253.40 641.52&#10;                L 1351.68 617.76 L 1351.68 617.76&#10;                L 1492.68 641.52&#10;                L 1576.96 617.76  V 760.32 H 0 V 617.76 Z" fill="#00070e"/><path d="M 0 665.2800000000001 L 0 665.28&#10;                L 91.00 711.28&#10;                L 225.28 665.28 L 225.28 665.28&#10;                L 300.37 711.28&#10;                L 450.56 665.28 L 450.56 665.28&#10;                L 531.56 689.04&#10;                L 675.84 665.28 L 675.84 665.28&#10;                L 750.93 689.04&#10;                L 901.12 665.28 L 901.12 665.28&#10;                L 989.12 691.28&#10;                L 1126.4 665.28 L 1126.4 665.28&#10;                L 1264.40 689.04&#10;                L 1351.68 665.28 L 1351.68 665.28&#10;                L 1426.77 711.28&#10;                L 1576.96 665.28  V 760.32 H 0 V 665.28 Z" fill="#000408"/><path d="M 0 712.8000000000001 L 0 712.80&#10;                L 75.09 736.56&#10;                L 225.28 712.80 L 225.28 712.80&#10;                L 325.28 736.56&#10;                L 450.56 712.80 L 450.56 712.80&#10;                L 584.56 743.80&#10;                L 675.84 712.80 L 675.84 712.80&#10;                L 750.93 751.80&#10;                L 901.12 712.80 L 901.12 712.80&#10;                L 978.12 744.80&#10;                L 1126.4 712.80 L 1126.4 712.80&#10;                L 1201.49 736.56&#10;                L 1351.68 712.80 L 1351.68 712.80&#10;                L 1426.77 736.56&#10;                L 1576.96 712.80  V 760.32 H 0 V 712.80 Z" fill="#000102"/></svg>