<?xml version="1.0" encoding="UTF-8" standalone="no"?><!DOCTYPE svg PUBLIC "-//W3C//DTD SVG 1.1//EN" "http://www.w3.org/Graphics/SVG/1.1/DTD/svg11.dtd"><svg width="100%" height="100%" viewBox="0 0 178 211" version="1.1" xmlns="http://www.w3.org/2000/svg" xmlns:xlink="http://www.w3.org/1999/xlink" xml:space="preserve" xmlns:serif="http://www.serif.com/" style="fill-rule:evenodd;clip-rule:evenodd;stroke-linecap:round;stroke-linejoin:round;stroke-miterlimit:1.5;"><g><g><path d="M5.913,16.674c0,-5.249 4.261,-9.51 9.51,-9.51l51.733,0.27c3.504,2.06 14.658,14.834 18.003,17.191l-0,87.721c-0,5.248 -4.261,9.509 -9.51,9.509l-60.226,0c-5.249,0 -9.51,-4.261 -9.51,-9.509l0,-95.672Z" style="fill:none;stroke:#fff;stroke-width:2.86px;"/><path d="M67.768,24.243l-0.011,-16.865l17.402,16.88l-17.391,-0.015Z" style="fill:#fff;stroke:#fff;stroke-width:1.91px;"/><path d="M34.174,5.584c0,-2.646 -2.148,-4.795 -4.794,-4.795l-23.796,0c-2.646,0 -4.795,2.149 -4.795,4.795l0,9.589c0,2.647 2.149,4.795 4.795,4.795l23.796,-0c2.646,-0 4.794,-2.148 4.794,-4.795l0,-9.589Z" style="fill:#fff;stroke:#fff;stroke-width:1.58px;"/><path d="M3.089,14.257l0,-8.31l-1.195,0l0,-1.386l4.063,-0l0,1.386l-1.195,0l0,8.31l1.195,-0l0,1.386l-4.063,-0l0,-1.386l1.195,-0Z" style="fill-rule:nonzero;"/><path d="M8.212,14.257l0,-8.31l-1.33,0l-0,-1.386l3.792,-0l2.916,7.596l2.948,-7.596l3.832,-0l-0,1.386l-1.339,0l0,8.31l1.339,-0l-0,1.386l-4.175,-0l0,-1.386l1.323,-0l-0,-8.31l-3.824,9.808l-0.327,-0l-3.784,-9.808l-0,8.31l1.218,-0l0,1.386l-3.919,-0l-0,-1.386l1.33,-0Z" style="fill-rule:nonzero;"/><path d="M29.03,10.297l4.031,0c0.006,0.143 0.008,0.271 0.008,0.382c0,1.557 -0.509,2.802 -1.529,3.737c-1.02,0.935 -2.366,1.402 -4.04,1.402c-2.002,0 -3.494,-0.569 -4.477,-1.709c-0.983,-1.139 -1.474,-2.487 -1.474,-4.043c0,-1.631 0.502,-2.985 1.506,-4.063c1.004,-1.078 2.366,-1.618 4.087,-1.618c1.546,0 2.842,0.471 3.888,1.411l-0,-1.235l1.41,-0l0,3.641l-1.41,-0c-0.266,-0.611 -0.737,-1.154 -1.414,-1.63c-0.677,-0.475 -1.452,-0.713 -2.323,-0.713c-1.211,0 -2.167,0.409 -2.868,1.227c-0.701,0.818 -1.051,1.804 -1.051,2.956c-0,1.323 0.399,2.372 1.199,3.147c0.799,0.776 1.762,1.163 2.888,1.163c0.881,0 1.667,-0.245 2.358,-0.737c0.69,-0.491 1.094,-1.135 1.211,-1.932l-2,0l0,-1.386Z" style="fill-rule:nonzero;"/><g><g><g><path d="M54.075,64.736l20.506,23.749l-41.012,-0l20.506,-23.749Z" style="fill:#fff;stroke:#fff;stroke-width:1.07px;"/><path d="M33.569,71.495l17.077,16.99l-34.154,-0l17.077,-16.99Z" style="fill:#fff;stroke:#fff;stroke-width:1.07px;"/><path d="M80.418,46.676l-0,45.631l-69.764,0l0,-45.631l69.764,-0Zm-5.216,3.412l-59.331,-0l-0,38.807l59.331,0l-0,-38.807Z" style="fill:#fff;stroke:#fff;stroke-width:1.61px;"/><circle cx="27.839" cy="60.511" r="7.901" style="fill:#fff;stroke:#fff;stroke-width:1.07px;"/></g></g></g></g><g><path d="M96.685,103.607c0,-5.248 4.261,-9.509 9.51,-9.509l51.733,0.27c3.504,2.06 14.658,14.834 18.003,17.19l0,87.721c0,5.249 -4.261,9.51 -9.509,9.51l-60.227,-0c-5.249,-0 -9.51,-4.261 -9.51,-9.51l0,-95.672Z" style="fill:none;stroke:#fff;stroke-width:2.86px;"/><path d="M158.54,111.177l-0.01,-16.865l17.401,16.88l-17.391,-0.015Z" style="fill:#fff;stroke:#fff;stroke-width:1.91px;"/><path d="M103.578,195.612c0,-0.523 0.425,-0.949 0.949,-0.949l61.755,0c0.523,0 0.948,0.426 0.948,0.949l0,1.898c0,0.523 -0.425,0.948 -0.948,0.948l-61.755,0c-0.524,0 -0.949,-0.425 -0.949,-0.948l0,-1.898Z" style="fill:#fff;stroke:#fff;stroke-width:2.38px;"/><path d="M103.578,184.227c0,-0.523 0.425,-0.948 0.949,-0.948l61.755,-0c0.523,-0 0.948,0.425 0.948,0.948l0,1.898c0,0.523 -0.425,0.949 -0.948,0.949l-61.755,-0c-0.524,-0 -0.949,-0.426 -0.949,-0.949l0,-1.898Z" style="fill:#fff;stroke:#fff;stroke-width:2.38px;"/><path d="M103.578,172.74c0,-0.524 0.425,-0.949 0.949,-0.949l61.755,0c0.523,0 0.948,0.425 0.948,0.949l0,1.897c0,0.524 -0.425,0.949 -0.948,0.949l-61.755,0c-0.524,0 -0.949,-0.425 -0.949,-0.949l0,-1.897Z" style="fill:#fff;stroke:#fff;stroke-width:2.38px;"/><path d="M103.516,162.446c0,-0.523 0.425,-0.948 0.949,-0.948l61.817,-0c0.523,-0 0.948,0.425 0.948,0.948l0,1.898c0,0.523 -0.425,0.949 -0.948,0.949l-61.817,-0c-0.524,-0 -0.949,-0.426 -0.949,-0.949l0,-1.898Z" style="fill:#fff;stroke:#fff;stroke-width:2.39px;"/><path d="M103.516,150.495c0,-0.524 0.425,-0.949 0.949,-0.949l61.817,-0c0.523,-0 0.948,0.425 0.948,0.949l0,1.897c0,0.524 -0.425,0.949 -0.948,0.949l-61.817,-0c-0.524,-0 -0.949,-0.425 -0.949,-0.949l0,-1.897Z" style="fill:#fff;stroke:#fff;stroke-width:2.39px;"/><path d="M103.516,138.543c0,-0.524 0.425,-0.949 0.949,-0.949l61.817,0c0.523,0 0.948,0.425 0.948,0.949l0,1.898c0,0.523 -0.425,0.948 -0.948,0.948l-61.817,0c-0.524,0 -0.949,-0.425 -0.949,-0.948l0,-1.898Z" style="fill:#fff;stroke:#fff;stroke-width:2.39px;"/><path d="M103.578,128.25c0,-0.524 0.425,-0.949 0.949,-0.949l61.755,-0c0.523,-0 0.948,0.425 0.948,0.949l0,1.897c0,0.524 -0.425,0.949 -0.948,0.949l-61.755,-0c-0.524,-0 -0.949,-0.425 -0.949,-0.949l0,-1.897Z" style="fill:#fff;stroke:#fff;stroke-width:2.38px;"/><path d="M103.578,116.762c0,-0.524 0.425,-0.949 0.949,-0.949l61.755,0c0.523,0 0.948,0.425 0.948,0.949l0,1.898c0,0.523 -0.425,0.948 -0.948,0.948l-61.755,0c-0.524,0 -0.949,-0.425 -0.949,-0.948l0,-1.898Z" style="fill:#fff;stroke:#fff;stroke-width:2.38px;"/><path d="M124.947,92.518c-0,-2.647 -2.149,-4.795 -4.795,-4.795l-23.796,-0c-2.646,-0 -4.794,2.148 -4.794,4.795l-0,9.589c-0,2.646 2.148,4.794 4.794,4.794l23.796,0c2.646,0 4.795,-2.148 4.795,-4.794l-0,-9.589Z" style="fill:#fff;stroke:#fff;stroke-width:1.58px;"/><path d="M97.451,101.363l-0,-8.309l-2.287,-0l0,2.828l-1.37,0l-0,-4.215l8.979,0l-0,4.215l-1.371,0l0,-2.828l-2.278,-0l-0,8.309l1.442,0l-0,1.387l-4.533,-0l-0,-1.387l1.418,0Z" style="fill-rule:nonzero;"/><path d="M104.605,101.363l2.823,-4.158l-2.814,-4.151l-1.427,-0l-0,-1.387l4.454,0l-0,1.387l-1.251,-0l1.934,2.83l1.922,-2.83l-1.283,-0l0,-1.387l4.255,0l-0,1.387l-1.383,-0l-2.713,3.996l2.948,4.313l1.442,0l0,1.387l-4.549,-0l0,-1.387l1.283,0l-2.024,-2.987l-2.028,2.987l1.343,0l-0,1.387l-4.414,-0l0,-1.387l1.482,0Z" style="fill-rule:nonzero;"/><path d="M117.504,101.363l-0,-8.309l-2.287,-0l0,2.828l-1.37,0l-0,-4.215l8.979,0l-0,4.215l-1.371,0l0,-2.828l-2.278,-0l-0,8.309l1.442,0l-0,1.387l-4.533,-0l-0,-1.387l1.418,0Z" style="fill-rule:nonzero;"/></g><path d="M93.383,35.586l0,13.614c17.84,-0 28.494,1.026 27.213,11.822l18.322,0c-0,-19.456 -19.173,-25.436 -45.535,-25.436Z" style="fill:#fff;"/><path d="M123.48,65.74l12.973,0l0,2.785l12.047,0l-18.533,18.534l-18.534,-18.534l12.047,0l-0,-2.785Z" style="fill:#fff;"/></g></svg>