<?xml version="1.0" encoding="UTF-8" standalone="no"?><!DOCTYPE svg PUBLIC "-//W3C//DTD SVG 1.1//EN" "http://www.w3.org/Graphics/SVG/1.1/DTD/svg11.dtd"><svg width="100%" height="100%" viewBox="0 0 202 172" version="1.1" xmlns="http://www.w3.org/2000/svg" xmlns:xlink="http://www.w3.org/1999/xlink" xml:space="preserve" xmlns:serif="http://www.serif.com/" style="fill-rule:evenodd;clip-rule:evenodd;stroke-linecap:round;stroke-linejoin:round;stroke-miterlimit:1.5;"><g><g><path d="M89.145,22.612c0,-7.333 5.954,-13.287 13.288,-13.287l72.288,0.377c4.896,2.878 20.481,20.728 25.155,24.02l0,122.574c0,7.334 -5.954,13.288 -13.287,13.288l-84.156,-0c-7.334,-0 -13.288,-5.954 -13.288,-13.288l0,-133.684Z" style="fill:#fff;fill-opacity:0;stroke:#fff;stroke-width:4px;"/><path d="M175.576,33.189l-0.015,-23.565l24.315,23.586l-24.3,-0.021Z" style="fill:#fff;fill-opacity:0;stroke:#fff;stroke-width:2.67px;"/><path d="M128.635,7.116c-0,-3.697 -3.002,-6.699 -6.7,-6.699l-33.25,-0c-3.697,-0 -6.699,3.002 -6.699,6.699l-0,13.4c-0,3.697 3.002,6.699 6.699,6.699l33.25,0c3.698,0 6.7,-3.002 6.7,-6.699l-0,-13.4Z" style="fill:#fff;stroke:#000;stroke-width:0.83px;"/><path d="M85.199,19.235l0,-11.611l-1.669,-0l-0,-1.938l5.677,0l0,1.938l-1.67,-0l0,11.611l1.67,-0l0,1.937l-5.677,-0l-0,-1.937l1.669,-0Z" style="fill-rule:nonzero;"/><path d="M92.358,19.235l-0,-11.611l-1.86,-0l0,-1.938l5.3,0l4.074,10.615l4.119,-10.615l5.355,0l-0,1.938l-1.87,-0l-0,11.611l1.87,-0l-0,1.937l-5.834,-0l0,-1.937l1.848,-0l0,-11.611l-5.343,13.704l-0.457,-0l-5.288,-13.704l0,11.611l1.704,-0l-0,1.937l-5.478,-0l0,-1.937l1.86,-0Z" style="fill-rule:nonzero;"/><path d="M121.447,13.702l5.633,-0c0.007,0.2 0.011,0.378 0.011,0.534c-0,2.175 -0.713,3.915 -2.137,5.221c-1.425,1.307 -3.307,1.96 -5.645,1.96c-2.798,-0 -4.883,-0.796 -6.256,-2.388c-1.373,-1.592 -2.06,-3.475 -2.06,-5.65c0,-2.278 0.702,-4.171 2.104,-5.678c1.403,-1.506 3.307,-2.259 5.711,-2.259c2.16,-0 3.971,0.656 5.433,1.97l0,-1.726l1.971,0l-0,5.088l-1.971,0c-0.371,-0.853 -1.03,-1.612 -1.976,-2.277c-0.946,-0.664 -2.028,-0.996 -3.245,-0.996c-1.692,0 -3.028,0.572 -4.008,1.714c-0.979,1.143 -1.469,2.52 -1.469,4.131c-0,1.848 0.558,3.313 1.675,4.397c1.117,1.084 2.462,1.625 4.036,1.625c1.232,0 2.33,-0.343 3.295,-1.029c0.965,-0.687 1.529,-1.587 1.692,-2.7l-2.794,-0l-0,-1.937Z" style="fill-rule:nonzero;"/><g><g><path d="M135.524,85.066l-21.583,24.995l43.166,0l-21.583,-24.995Z" style="fill:#fff;"/><path d="M157.107,92.18l-17.974,17.881l35.948,0l-17.974,-17.881Z" style="fill:#fff;"/><path d="M107.797,65.44l0,48.028l73.427,0l0,-48.028l-73.427,0Zm5.49,3.591l62.447,0l0,40.846l-62.447,0l0,-40.846Z" style="fill:#fff;"/><circle cx="163.137" cy="80.002" r="8.316" style="fill:#fff;"/></g></g></g><g><g><path d="M58.268,96.055l7.829,8.077l-13.47,13.132l-7.829,-8.077l13.47,-13.132Z" style="fill:#fff;"/><path d="M42.857,105.825c1.891,-1.844 4.92,-1.802 6.759,0.094l6.664,6.873c1.839,1.897 1.796,4.934 -0.095,6.779l-41.41,40.387c-1.891,1.844 -4.92,1.802 -6.759,-0.095l-6.664,-6.872c-1.839,-1.897 -1.797,-4.934 0.095,-6.779l41.41,-40.387Z" style="fill:#fff;"/><path d="M86.777,35.072c-21.889,0 -39.66,17.823 -39.66,39.776c-0,21.953 17.771,39.776 39.66,39.776c21.889,-0 39.66,-17.823 39.66,-39.776c0,-21.953 -17.771,-39.776 -39.66,-39.776Zm0,7.827c17.582,0 31.856,14.316 31.856,31.949c0,17.633 -14.274,31.949 -31.856,31.949c-17.582,-0 -31.856,-14.316 -31.856,-31.949c-0,-17.633 14.274,-31.949 31.856,-31.949Z" style="fill:#fff;"/></g><path d="M75.966,52.646c0.531,-0.053 1.067,-0.053 1.599,0l0.271,1.251c0.472,0.075 0.935,0.199 1.381,0.371l0.861,-0.949c0.487,0.22 0.95,0.488 1.384,0.799l-0.391,1.219c0.372,0.301 0.711,0.64 1.011,1.011l1.22,-0.391c0.312,0.434 0.58,0.898 0.799,1.384l-0.948,0.861c0.171,0.446 0.295,0.909 0.37,1.381l1.252,0.27c0.053,0.532 0.053,1.067 -0,1.599l-1.252,0.27c-0.075,0.472 -0.199,0.935 -0.37,1.381l0.948,0.861c-0.219,0.486 -0.487,0.95 -0.799,1.384l-1.22,-0.391c-0.3,0.371 -0.639,0.71 -1.011,1.011l0.391,1.219c-0.434,0.311 -0.897,0.579 -1.384,0.799l-0.861,-0.949c-0.446,0.172 -0.909,0.296 -1.381,0.37l-0.271,1.252c-0.532,0.053 -1.068,0.053 -1.599,-0l-0.271,-1.252c-0.472,-0.074 -0.935,-0.198 -1.382,-0.37l-0.86,0.949c-0.487,-0.22 -0.951,-0.488 -1.385,-0.799l0.392,-1.219c-0.372,-0.301 -0.711,-0.64 -1.012,-1.011l-1.219,0.391c-0.312,-0.434 -0.58,-0.898 -0.8,-1.384l0.949,-0.861c-0.172,-0.446 -0.296,-0.909 -0.37,-1.381l-1.252,-0.27c-0.053,-0.532 -0.053,-1.067 -0,-1.599l1.252,-0.27c0.074,-0.472 0.198,-0.935 0.37,-1.381l-0.949,-0.861c0.22,-0.486 0.488,-0.95 0.8,-1.384l1.219,0.391c0.301,-0.371 0.64,-0.71 1.012,-1.011l-0.392,-1.219c0.434,-0.311 0.898,-0.579 1.385,-0.799l0.86,0.949c0.447,-0.172 0.91,-0.296 1.382,-0.371l0.271,-1.251Zm0.799,3.018c-2.754,-0 -4.99,2.235 -4.99,4.988c-0,2.754 2.236,4.989 4.99,4.989c2.755,0 4.991,-2.235 4.991,-4.989c-0,-2.753 -2.236,-4.988 -4.991,-4.988Z" style="fill:#fff;"/><path d="M103.621,51.549c0.465,-0.045 0.934,-0.045 1.398,-0l0.237,1.058c0.413,0.063 0.818,0.168 1.208,0.313l0.753,-0.802c0.425,0.186 0.831,0.412 1.21,0.676l-0.342,1.03c0.325,0.255 0.621,0.541 0.885,0.855l1.066,-0.33c0.272,0.366 0.507,0.758 0.699,1.17l-0.83,0.727c0.15,0.377 0.259,0.769 0.324,1.168l1.095,0.229c0.046,0.449 0.046,0.902 -0,1.351l-1.095,0.229c-0.065,0.399 -0.174,0.791 -0.324,1.168l0.83,0.727c-0.192,0.412 -0.427,0.804 -0.699,1.17l-1.066,-0.33c-0.264,0.314 -0.56,0.6 -0.885,0.855l0.342,1.03c-0.379,0.264 -0.785,0.49 -1.21,0.676l-0.753,-0.802c-0.39,0.145 -0.795,0.25 -1.208,0.313l-0.237,1.058c-0.464,0.045 -0.933,0.045 -1.398,0l-0.236,-1.058c-0.413,-0.063 -0.818,-0.168 -1.208,-0.313l-0.753,0.802c-0.426,-0.186 -0.831,-0.412 -1.211,-0.676l0.343,-1.03c-0.325,-0.255 -0.622,-0.541 -0.885,-0.855l-1.066,0.33c-0.273,-0.366 -0.507,-0.758 -0.699,-1.17l0.829,-0.727c-0.149,-0.377 -0.258,-0.769 -0.323,-1.168l-1.095,-0.229c-0.046,-0.449 -0.046,-0.902 0,-1.351l1.095,-0.229c0.065,-0.399 0.174,-0.791 0.323,-1.168l-0.829,-0.727c0.192,-0.412 0.426,-0.804 0.699,-1.17l1.066,0.33c0.263,-0.314 0.56,-0.6 0.885,-0.855l-0.343,-1.03c0.38,-0.264 0.785,-0.49 1.211,-0.676l0.753,0.802c0.39,-0.145 0.795,-0.25 1.208,-0.313l0.236,-1.058Zm0.699,2.552c-2.408,-0 -4.363,1.89 -4.363,4.218c-0,2.328 1.955,4.218 4.363,4.218c2.409,-0 4.364,-1.89 4.364,-4.218c-0,-2.328 -1.955,-4.218 -4.364,-4.218Z" style="fill:#fff;"/><path d="M99.358,72.339c0.398,-0.039 0.8,-0.039 1.198,-0l0.203,0.907c0.354,0.054 0.701,0.144 1.036,0.268l0.644,-0.687c0.365,0.159 0.713,0.353 1.038,0.579l-0.293,0.883c0.278,0.218 0.533,0.464 0.758,0.733l0.914,-0.283c0.234,0.314 0.434,0.65 0.599,1.003l-0.711,0.623c0.129,0.324 0.222,0.659 0.278,1.001l0.938,0.197c0.04,0.385 0.04,0.773 -0,1.158l-0.938,0.196c-0.056,0.342 -0.149,0.678 -0.278,1.001l0.711,0.624c-0.165,0.352 -0.365,0.688 -0.599,1.003l-0.914,-0.284c-0.225,0.269 -0.48,0.515 -0.758,0.733l0.293,0.884c-0.325,0.225 -0.673,0.419 -1.038,0.579l-0.644,-0.688c-0.335,0.125 -0.682,0.214 -1.036,0.269l-0.203,0.907c-0.398,0.038 -0.8,0.038 -1.198,-0l-0.203,-0.907c-0.354,-0.055 -0.701,-0.144 -1.036,-0.269l-0.645,0.688c-0.365,-0.16 -0.712,-0.354 -1.038,-0.579l0.294,-0.884c-0.279,-0.218 -0.533,-0.464 -0.758,-0.733l-0.914,0.284c-0.234,-0.315 -0.435,-0.651 -0.6,-1.003l0.711,-0.624c-0.128,-0.323 -0.221,-0.659 -0.277,-1.001l-0.938,-0.196c-0.04,-0.385 -0.04,-0.773 -0,-1.158l0.938,-0.197c0.056,-0.342 0.149,-0.677 0.277,-1.001l-0.711,-0.623c0.165,-0.353 0.366,-0.689 0.6,-1.003l0.914,0.283c0.225,-0.269 0.479,-0.515 0.758,-0.733l-0.294,-0.883c0.326,-0.226 0.673,-0.42 1.038,-0.579l0.645,0.687c0.335,-0.124 0.682,-0.214 1.036,-0.268l0.203,-0.907Zm0.599,2.187c-2.065,0 -3.741,1.62 -3.741,3.616c0,1.995 1.676,3.615 3.741,3.615c2.064,0 3.74,-1.62 3.74,-3.615c0,-1.996 -1.676,-3.616 -3.74,-3.616Z" style="fill:#fff;"/><path d="M96.841,90.726c0.293,-0.028 0.589,-0.028 0.883,-0l0.15,0.669c0.261,0.04 0.517,0.106 0.763,0.197l0.476,-0.506c0.269,0.117 0.526,0.26 0.765,0.427l-0.216,0.651c0.205,0.161 0.393,0.342 0.559,0.541l0.674,-0.21c0.172,0.232 0.32,0.48 0.442,0.74l-0.524,0.46c0.094,0.238 0.163,0.486 0.204,0.738l0.692,0.145c0.029,0.284 0.029,0.57 -0,0.854l-0.692,0.145c-0.041,0.252 -0.11,0.499 -0.204,0.738l0.524,0.459c-0.122,0.261 -0.27,0.508 -0.442,0.74l-0.674,-0.209c-0.166,0.199 -0.354,0.38 -0.559,0.54l0.216,0.652c-0.239,0.166 -0.496,0.31 -0.765,0.427l-0.476,-0.507c-0.246,0.092 -0.502,0.158 -0.763,0.198l-0.15,0.669c-0.294,0.028 -0.59,0.028 -0.883,-0l-0.15,-0.669c-0.261,-0.04 -0.517,-0.106 -0.764,-0.198l-0.475,0.507c-0.269,-0.117 -0.526,-0.261 -0.765,-0.427l0.216,-0.652c-0.206,-0.16 -0.393,-0.341 -0.559,-0.54l-0.674,0.209c-0.172,-0.232 -0.32,-0.479 -0.442,-0.74l0.524,-0.459c-0.094,-0.239 -0.163,-0.486 -0.204,-0.738l-0.692,-0.145c-0.029,-0.284 -0.029,-0.57 -0,-0.854l0.692,-0.145c0.041,-0.252 0.11,-0.5 0.204,-0.738l-0.524,-0.46c0.122,-0.26 0.27,-0.508 0.442,-0.74l0.674,0.21c0.166,-0.199 0.353,-0.38 0.559,-0.541l-0.216,-0.651c0.239,-0.167 0.496,-0.31 0.765,-0.427l0.475,0.506c0.247,-0.091 0.503,-0.157 0.764,-0.197l0.15,-0.669Zm0.441,1.613c-1.522,-0 -2.758,1.194 -2.758,2.666c0,1.471 1.236,2.666 2.758,2.666c1.523,-0 2.759,-1.195 2.759,-2.666c-0,-1.472 -1.236,-2.666 -2.759,-2.666Z" style="fill:#fff;"/><path d="M70.633,74.237c0.759,-0.072 1.524,-0.072 2.284,-0l0.387,1.685c0.674,0.101 1.336,0.268 1.974,0.499l1.229,-1.278c0.696,0.296 1.358,0.657 1.978,1.077l-0.559,1.642c0.531,0.405 1.015,0.861 1.445,1.361l1.742,-0.527c0.446,0.585 0.828,1.209 1.142,1.865l-1.355,1.158c0.245,0.601 0.422,1.224 0.529,1.86l1.788,0.365c0.076,0.715 0.076,1.437 0,2.152l-1.788,0.365c-0.107,0.636 -0.284,1.259 -0.529,1.86l1.355,1.158c-0.314,0.656 -0.696,1.281 -1.142,1.865l-1.742,-0.527c-0.43,0.5 -0.914,0.956 -1.445,1.361l0.559,1.642c-0.62,0.42 -1.282,0.781 -1.978,1.077l-1.229,-1.278c-0.638,0.231 -1.3,0.398 -1.974,0.499l-0.387,1.685c-0.76,0.072 -1.525,0.072 -2.284,0l-0.387,-1.685c-0.675,-0.101 -1.336,-0.268 -1.974,-0.499l-1.229,1.278c-0.696,-0.296 -1.359,-0.657 -1.979,-1.077l0.559,-1.642c-0.53,-0.405 -1.015,-0.861 -1.444,-1.361l-1.743,0.527c-0.445,-0.584 -0.828,-1.209 -1.142,-1.865l1.355,-1.158c-0.244,-0.601 -0.422,-1.224 -0.528,-1.86l-1.789,-0.365c-0.076,-0.715 -0.076,-1.437 0,-2.152l1.789,-0.365c0.106,-0.636 0.284,-1.259 0.528,-1.86l-1.355,-1.158c0.314,-0.656 0.697,-1.28 1.142,-1.865l1.743,0.527c0.429,-0.5 0.914,-0.956 1.444,-1.361l-0.559,-1.642c0.62,-0.42 1.283,-0.781 1.979,-1.077l1.229,1.278c0.638,-0.231 1.299,-0.398 1.974,-0.499l0.387,-1.685Zm1.142,4.064c-3.935,0 -7.13,3.011 -7.13,6.719c0,3.708 3.195,6.719 7.13,6.719c3.935,-0 7.129,-3.011 7.129,-6.719c0,-3.708 -3.194,-6.719 -7.129,-6.719Z" style="fill:#fff;"/></g></g></svg>