<?xml version="1.0" encoding="UTF-8" standalone="no"?><!DOCTYPE svg PUBLIC "-//W3C//DTD SVG 1.1//EN" "http://www.w3.org/Graphics/SVG/1.1/DTD/svg11.dtd"><svg width="100%" height="100%" viewBox="0 0 177 172" version="1.1" xmlns="http://www.w3.org/2000/svg" xmlns:xlink="http://www.w3.org/1999/xlink" xml:space="preserve" xmlns:serif="http://www.serif.com/" style="fill-rule:evenodd;clip-rule:evenodd;stroke-linecap:round;stroke-linejoin:round;stroke-miterlimit:1.5;"><path d="M63.729,22.612c0,-7.333 5.954,-13.287 13.288,-13.287l72.287,0.377c4.896,2.878 20.482,20.728 25.156,24.02l0,122.574c0,7.334 -5.954,13.288 -13.288,13.288l-84.155,-0c-7.334,-0 -13.288,-5.954 -13.288,-13.288l0,-133.684Z" style="fill:#fff;fill-opacity:0;stroke:#fff;stroke-width:4px;"/><path d="M150.159,33.189l-0.014,-23.565l24.315,23.586l-24.301,-0.021Z" style="fill:#fff;stroke:#fff;stroke-width:2.67px;"/><path d="M73.361,151.172c-0,-0.732 0.594,-1.326 1.325,-1.326l86.291,0c0.731,0 1.325,0.594 1.325,1.326l0,2.651c0,0.732 -0.594,1.326 -1.325,1.326l-86.291,-0c-0.731,-0 -1.325,-0.594 -1.325,-1.326l-0,-2.651Z" style="fill:#fff;"/><path d="M85.561,135.264c-0,-0.732 0.594,-1.326 1.326,-1.326l74.09,-0c0.731,-0 1.325,0.594 1.325,1.326l0,2.651c0,0.732 -0.594,1.326 -1.325,1.326l-74.09,-0c-0.732,-0 -1.326,-0.594 -1.326,-1.326l-0,-2.651Z" style="fill:#fff;"/><path d="M99.521,119.212c0,-0.732 0.594,-1.326 1.326,-1.326l60.13,0c0.731,0 1.325,0.594 1.325,1.326l0,2.651c0,0.732 -0.594,1.326 -1.325,1.326l-60.13,0c-0.732,0 -1.326,-0.594 -1.326,-1.326l0,-2.651Z" style="fill:#fff;"/><path d="M111.958,104.829c-0,-0.732 0.594,-1.326 1.325,-1.326l47.694,0c0.731,0 1.325,0.594 1.325,1.326l0,2.651c0,0.732 -0.594,1.326 -1.325,1.326l-47.694,-0c-0.731,-0 -1.325,-0.594 -1.325,-1.326l-0,-2.651Z" style="fill:#fff;"/><path d="M111.958,88.129c-0,-0.732 0.594,-1.326 1.325,-1.326l47.694,-0c0.731,-0 1.325,0.594 1.325,1.326l0,2.651c0,0.732 -0.594,1.326 -1.325,1.326l-47.694,-0c-0.731,-0 -1.325,-0.594 -1.325,-1.326l-0,-2.651Z" style="fill:#fff;"/><path d="M99.46,71.428c-0,-0.731 0.594,-1.325 1.325,-1.325l60.192,-0c0.731,-0 1.325,0.594 1.325,1.325l0,2.652c0,0.731 -0.594,1.325 -1.325,1.325l-60.192,0c-0.731,0 -1.325,-0.594 -1.325,-1.325l-0,-2.652Z" style="fill:#fff;"/><path d="M85.561,57.045c-0,-0.732 0.594,-1.326 1.326,-1.326l74.09,0c0.731,0 1.325,0.594 1.325,1.326l0,2.651c0,0.732 -0.594,1.326 -1.325,1.326l-74.09,0c-0.732,0 -1.326,-0.594 -1.326,-1.326l-0,-2.651Z" style="fill:#fff;"/><path d="M73.361,40.993c-0,-0.731 0.594,-1.325 1.325,-1.325l86.291,-0c0.731,-0 1.325,0.594 1.325,1.325l0,2.652c0,0.731 -0.594,1.326 -1.325,1.326l-86.291,-0c-0.731,-0 -1.325,-0.595 -1.325,-1.326l-0,-2.652Z" style="fill:#fff;"/><path d="M103.219,7.116c-0,-3.697 -3.002,-6.699 -6.7,-6.699l-33.25,-0c-3.698,-0 -6.7,3.002 -6.7,6.699l0,13.4c0,3.697 3.002,6.699 6.7,6.699l33.25,0c3.698,0 6.7,-3.002 6.7,-6.699l-0,-13.4Z" style="fill:#fff;stroke:#000;stroke-width:0.83px;"/><g transform="matrix(22.7993,0,0,22.7993,100.511,21.4139)"></g><text x="59.421px" y="21.414px" style="font-family:'Rockwell', serif;font-size:22.799px;">TXT</text><path d="M40.708,52.091c-0.302,-0 -0.547,0.325 -0.547,0.725l0,87.187c0,0.4 0.245,0.725 0.547,0.725l1.095,-0c0.302,-0 0.547,-0.325 0.547,-0.725l-0,-87.187c-0,-0.4 -0.245,-0.725 -0.547,-0.725l-1.095,-0Z" style="fill:#fff;"/><path d="M53.521,75.398c-0.302,-0 -0.548,0.324 -0.548,0.724l0,40.574c0,0.4 0.246,0.725 0.548,0.725l1.094,0c0.302,0 0.547,-0.325 0.547,-0.725l0,-40.574c0,-0.4 -0.245,-0.724 -0.547,-0.724l-1.094,-0Z" style="fill:#fff;"/><path d="M34.94,75.398c0.302,-0 0.547,0.324 0.547,0.724l-0,40.574c-0,0.4 -0.245,0.725 -0.547,0.725l-1.095,0c-0.302,0 -0.547,-0.325 -0.547,-0.725l0,-40.574c0,-0.4 0.245,-0.724 0.547,-0.724l1.095,-0Z" style="fill:#fff;"/><path d="M64.054,83.417c-0.302,-0 -0.547,0.245 -0.547,0.547l-0,26.638c-0,0.302 0.245,0.548 0.547,0.548l1.094,-0c0.302,-0 0.547,-0.246 0.547,-0.548l0,-26.638c0,-0.302 -0.245,-0.547 -0.547,-0.547l-1.094,-0Z" style="fill:#fff;"/><path d="M47.711,61.676c-0.302,0 -0.547,0.325 -0.547,0.725l0,68.017c0,0.4 0.245,0.725 0.547,0.725l1.095,-0c0.302,-0 0.547,-0.325 0.547,-0.725l-0,-68.017c-0,-0.4 -0.245,-0.725 -0.547,-0.725l-1.095,0Z" style="fill:#fff;"/><path d="M69.446,103.131l0,-10.222l17.748,-0l0,-9.492l14.603,14.603l-14.603,14.602l0,-9.491l-17.748,-0Z" style="fill:#fff;"/><path d="M28.709,123.08c-2.214,2.764 -4.429,2.455 -6.643,-0c-4.596,-6.639 -10.96,-9.95 -18.982,-10.141c-4.156,-11.02 -4.068,-22.039 -0,-33.059c8.022,-0.191 14.386,-3.503 18.982,-10.141c2.214,-2.456 4.429,-2.764 6.643,-0l0,53.341Z" style="fill:#fff;"/></svg>