<?xml version="1.0" encoding="UTF-8" standalone="no"?><!DOCTYPE svg PUBLIC "-//W3C//DTD SVG 1.1//EN" "http://www.w3.org/Graphics/SVG/1.1/DTD/svg11.dtd"><svg width="100%" height="100%" viewBox="0 0 57 55" version="1.1" xmlns="http://www.w3.org/2000/svg" xmlns:xlink="http://www.w3.org/1999/xlink" xml:space="preserve" xmlns:serif="http://www.serif.com/" style="fill-rule:evenodd;clip-rule:evenodd;stroke-linecap:round;stroke-linejoin:round;stroke-miterlimit:1.5;"><g><g><g><path d="M20.342,7.218c-0,-2.341 1.9,-4.242 4.241,-4.242l23.073,0.121c1.563,0.918 6.538,6.616 8.03,7.667l-0,39.124c-0,2.341 -1.901,4.241 -4.241,4.241l-26.862,0c-2.341,0 -4.241,-1.9 -4.241,-4.241l-0,-42.67Z" style="fill:#fff;fill-opacity:0;stroke:#fff;stroke-width:1.28px;"/><path d="M47.929,10.594l-0.004,-7.522l7.761,7.528l-7.757,-0.006Z" style="fill:#fff;stroke:#fff;stroke-width:0.85px;"/><path d="M23.416,48.252c-0,-0.233 0.19,-0.423 0.423,-0.423l27.543,0c0.234,0 0.423,0.19 0.423,0.423l0,0.847c0,0.233 -0.189,0.423 -0.423,0.423l-27.543,-0c-0.233,-0 -0.423,-0.19 -0.423,-0.423l-0,-0.847Z" style="fill:#fff;"/><path d="M27.31,43.175c0,-0.234 0.19,-0.423 0.423,-0.423l23.649,-0c0.234,-0 0.423,0.189 0.423,0.423l0,0.846c0,0.234 -0.189,0.423 -0.423,0.423l-23.649,0c-0.233,0 -0.423,-0.189 -0.423,-0.423l0,-0.846Z" style="fill:#fff;"/><path d="M31.766,38.051c0,-0.233 0.19,-0.423 0.423,-0.423l19.193,0c0.234,0 0.423,0.19 0.423,0.423l0,0.847c0,0.233 -0.189,0.423 -0.423,0.423l-19.193,-0c-0.233,-0 -0.423,-0.19 -0.423,-0.423l0,-0.847Z" style="fill:#fff;"/><path d="M35.736,33.46c-0,-0.233 0.189,-0.423 0.423,-0.423l15.223,0c0.234,0 0.423,0.19 0.423,0.423l0,0.847c0,0.233 -0.189,0.423 -0.423,0.423l-15.223,-0c-0.234,-0 -0.423,-0.19 -0.423,-0.423l-0,-0.847Z" style="fill:#fff;"/><path d="M35.736,28.13c-0,-0.234 0.189,-0.423 0.423,-0.423l15.223,-0c0.234,-0 0.423,0.189 0.423,0.423l0,0.846c0,0.234 -0.189,0.423 -0.423,0.423l-15.223,0c-0.234,0 -0.423,-0.189 -0.423,-0.423l-0,-0.846Z" style="fill:#fff;"/><path d="M31.747,22.799c-0,-0.233 0.189,-0.423 0.423,-0.423l19.212,0c0.234,0 0.423,0.19 0.423,0.423l0,0.847c0,0.233 -0.189,0.423 -0.423,0.423l-19.212,-0c-0.234,-0 -0.423,-0.19 -0.423,-0.423l-0,-0.847Z" style="fill:#fff;"/><path d="M27.31,18.208c0,-0.233 0.19,-0.423 0.423,-0.423l23.649,0c0.234,0 0.423,0.19 0.423,0.423l0,0.846c0,0.234 -0.189,0.424 -0.423,0.424l-23.649,-0c-0.233,-0 -0.423,-0.19 -0.423,-0.424l0,-0.846Z" style="fill:#fff;"/><path d="M23.416,13.085c-0,-0.234 0.19,-0.423 0.423,-0.423l27.543,-0c0.234,-0 0.423,0.189 0.423,0.423l0,0.846c0,0.234 -0.189,0.423 -0.423,0.423l-27.543,0c-0.233,0 -0.423,-0.189 -0.423,-0.423l-0,-0.846Z" style="fill:#fff;"/><path d="M32.946,2.271c0,-1.18 -0.958,-2.138 -2.138,-2.138l-10.613,-0c-1.18,-0 -2.139,0.958 -2.139,2.138l0,4.277c0,1.181 0.959,2.139 2.139,2.139l10.613,-0c1.18,-0 2.138,-0.958 2.138,-2.139l0,-4.277Z" style="fill:#fff;stroke:#000;stroke-width:0.27px;"/><path d="M20.683,6.217l-0,-3.706l-1.02,-0l0,1.261l-0.611,0l-0,-1.88l4.005,0l-0,1.88l-0.612,0l0,-1.261l-1.016,-0l0,3.706l0.643,-0l0,0.618l-2.022,0l0,-0.618l0.633,-0Z" style="fill-rule:nonzero;"/><path d="M23.874,6.217l1.259,-1.855l-1.255,-1.851l-0.637,-0l0,-0.619l1.987,0l-0,0.619l-0.558,-0l0.863,1.262l0.857,-1.262l-0.572,-0l-0,-0.619l1.897,0l0,0.619l-0.617,-0l-1.21,1.782l1.315,1.924l0.644,-0l-0,0.618l-2.029,0l-0,-0.618l0.572,-0l-0.903,-1.332l-0.904,1.332l0.599,-0l-0,0.618l-1.969,0l-0,-0.618l0.661,-0Z" style="fill-rule:nonzero;"/><path d="M29.627,6.217l-0,-3.706l-1.02,-0l0,1.261l-0.611,0l-0,-1.88l4.005,0l-0,1.88l-0.612,0l0,-1.261l-1.016,-0l0,3.706l0.643,-0l0,0.618l-2.022,0l0,-0.618l0.633,-0Z" style="fill-rule:nonzero;"/><path d="M20.445,26.626c-0.096,-0 -0.174,0.078 -0.174,0.174l-0,8.503c-0,0.097 0.078,0.175 0.174,0.175l0.35,-0c0.096,-0 0.174,-0.078 0.174,-0.175l0,-8.503c0,-0.096 -0.078,-0.174 -0.174,-0.174l-0.35,-0Z" style="fill:#fff;"/><path d="M22.663,32.918l0,-3.262l6.418,-0l-0,-3.03l4.661,4.661l-4.661,4.661l-0,-3.03l-6.418,0Z" style="fill:#fff;"/></g><path d="M12.994,16.627c-0.097,-0 -0.175,0.104 -0.175,0.231l0,27.83c0,0.127 0.078,0.231 0.175,0.231l0.349,-0c0.096,-0 0.175,-0.104 0.175,-0.231l-0,-27.83c-0,-0.127 -0.079,-0.231 -0.175,-0.231l-0.349,-0Z" style="fill:#fff;"/><path d="M17.083,24.066c-0.096,0 -0.174,0.104 -0.174,0.231l-0,12.951c-0,0.128 0.078,0.232 0.174,0.232l0.35,-0c0.096,-0 0.174,-0.104 0.174,-0.232l0,-12.951c0,-0.127 -0.078,-0.231 -0.174,-0.231l-0.35,0Z" style="fill:#fff;"/><path d="M11.152,24.066c0.097,0 0.175,0.104 0.175,0.231l0,12.951c0,0.128 -0.078,0.232 -0.175,0.232l-0.349,-0c-0.096,-0 -0.175,-0.104 -0.175,-0.232l0,-12.951c0,-0.127 0.079,-0.231 0.175,-0.231l0.349,0Z" style="fill:#fff;"/><path d="M15.229,19.686c-0.096,0 -0.175,0.104 -0.175,0.232l0,21.71c0,0.128 0.079,0.231 0.175,0.231l0.349,0c0.097,0 0.175,-0.103 0.175,-0.231l-0,-21.71c-0,-0.128 -0.078,-0.232 -0.175,-0.232l-0.349,0Z" style="fill:#fff;"/><path d="M9.164,39.286c-0.707,0.882 -1.414,0.784 -2.121,-0c-1.467,-2.119 -3.498,-3.176 -6.059,-3.237c-1.326,-3.517 -1.298,-7.035 0,-10.552c2.561,-0.061 4.592,-1.118 6.059,-3.237c0.707,-0.784 1.414,-0.882 2.121,-0l-0,17.026Z" style="fill:#fff;"/></g></g></svg>