<?xml version="1.0" encoding="UTF-8" standalone="no"?><!DOCTYPE svg PUBLIC "-//W3C//DTD SVG 1.1//EN" "http://www.w3.org/Graphics/SVG/1.1/DTD/svg11.dtd"><svg width="100%" height="100%" viewBox="0 0 190 173" version="1.1" xmlns="http://www.w3.org/2000/svg" xmlns:xlink="http://www.w3.org/1999/xlink" xml:space="preserve" xmlns:serif="http://www.serif.com/" style="fill-rule:evenodd;clip-rule:evenodd;stroke-linecap:round;stroke-linejoin:round;stroke-miterlimit:1.5;"><path d="M77.148,22.612c0,-7.333 5.954,-13.287 13.288,-13.287l72.287,0.377c4.896,2.878 20.482,20.728 25.156,24.02l0,122.574c0,7.334 -5.954,13.288 -13.288,13.288l-84.155,-0c-7.334,-0 -13.288,-5.954 -13.288,-13.288l0,-133.684Z" style="fill:#fff;fill-opacity:0;stroke:#fff;stroke-width:4px;"/><path d="M163.578,33.189l-0.014,-23.565l24.315,23.586l-24.301,-0.021Z" style="fill:#fff;"/><path d="M176.941,151.172c0,-0.732 -0.594,-1.326 -1.325,-1.326l-86.291,0c-0.732,0 -1.326,0.594 -1.326,1.326l0,2.651c0,0.732 0.594,1.326 1.326,1.326l86.291,-0c0.731,-0 1.325,-0.594 1.325,-1.326l0,-2.651Z" style="fill:#fff;"/><path d="M176.941,135.264c0,-0.732 -0.594,-1.326 -1.325,-1.326l-74.133,-0c-0.732,-0 -1.326,0.594 -1.326,1.326l0,2.651c0,0.732 0.594,1.326 1.326,1.326l74.133,-0c0.731,-0 1.325,-0.594 1.325,-1.326l0,-2.651Z" style="fill:#fff;"/><path d="M176.963,119.212c-0,-0.732 -0.594,-1.326 -1.326,-1.326l-64.173,0c-0.731,0 -1.325,0.594 -1.325,1.326l-0,2.651c-0,0.732 0.594,1.326 1.325,1.326l64.173,0c0.732,0 1.326,-0.594 1.326,-1.326l-0,-2.651Z" style="fill:#fff;"/><path d="M177.028,104.829c-0,-0.732 -0.594,-1.326 -1.326,-1.326l-53.168,0c-0.732,0 -1.326,0.594 -1.326,1.326l0,2.651c0,0.732 0.594,1.326 1.326,1.326l53.168,-0c0.732,-0 1.326,-0.594 1.326,-1.326l-0,-2.651Z" style="fill:#fff;"/><path d="M177.028,88.129c-0,-0.732 -0.594,-1.326 -1.326,-1.326l-53.168,-0c-0.732,-0 -1.326,0.594 -1.326,1.326l0,2.651c0,0.732 0.594,1.326 1.326,1.326l53.168,-0c0.732,-0 1.326,-0.594 1.326,-1.326l-0,-2.651Z" style="fill:#fff;"/><path d="M177.028,71.428c-0,-0.731 -0.594,-1.325 -1.326,-1.325l-64.238,-0c-0.731,-0 -1.325,0.594 -1.325,1.325l-0,2.652c-0,0.731 0.594,1.325 1.325,1.325l64.238,0c0.732,0 1.326,-0.594 1.326,-1.325l-0,-2.652Z" style="fill:#fff;"/><path d="M176.941,57.045c0,-0.732 -0.594,-1.326 -1.325,-1.326l-74.133,0c-0.732,0 -1.326,0.594 -1.326,1.326l0,2.651c0,0.732 0.594,1.326 1.326,1.326l74.133,0c0.731,0 1.325,-0.594 1.325,-1.326l0,-2.651Z" style="fill:#fff;"/><path d="M176.941,40.993c0,-0.731 -0.594,-1.325 -1.325,-1.325l-86.291,-0c-0.732,-0 -1.326,0.594 -1.326,1.325l0,2.652c0,0.731 0.594,1.326 1.326,1.326l86.291,-0c0.731,-0 1.325,-0.595 1.325,-1.326l0,-2.652Z" style="fill:#fff;"/><path d="M116.638,7.116c-0,-3.697 -3.002,-6.699 -6.7,-6.699l-33.25,-0c-3.697,-0 -6.7,3.002 -6.7,6.699l0,13.4c0,3.697 3.003,6.699 6.7,6.699l33.25,0c3.698,0 6.7,-3.002 6.7,-6.699l-0,-13.4Z" style="fill:#fff;stroke:#000;stroke-width:0.83px;"/><g transform="matrix(22.7993,0,0,22.7993,113.931,21.4139)"></g><text x="72.84px" y="21.414px" style="font-family:'Rockwell', serif;font-size:22.799px;stroke:#fff;stroke-width:0.46px;stroke-linecap:butt;stroke-miterlimit:2;">TXT</text><path d="M51.663,114.89l6.941,7.162l-11.943,11.643l-6.941,-7.161l11.943,-11.644Z" style="fill:#fff;"/><path d="M37.999,123.553c1.677,-1.636 4.362,-1.598 5.992,0.084l5.909,6.093c1.63,1.682 1.593,4.375 -0.084,6.01l-36.716,35.809c-1.677,1.635 -4.362,1.598 -5.993,-0.084l-5.908,-6.093c-1.631,-1.682 -1.593,-4.375 0.084,-6.01l36.716,-35.809Z" style="fill:#fff;"/><path d="M90.575,78.648c0.587,-0.059 1.178,-0.059 1.765,-0l0.299,1.381c0.522,0.083 1.033,0.22 1.526,0.409l0.949,-1.047c0.538,0.242 1.05,0.538 1.529,0.882l-0.432,1.346c0.41,0.332 0.784,0.706 1.117,1.116l1.346,-0.432c0.344,0.479 0.64,0.991 0.882,1.528l-1.047,0.949c0.189,0.493 0.326,1.004 0.409,1.525l1.382,0.299c0.058,0.587 0.058,1.178 -0,1.764l-1.382,0.299c-0.083,0.521 -0.22,1.032 -0.409,1.525l1.047,0.949c-0.242,0.538 -0.538,1.049 -0.882,1.528l-1.346,-0.432c-0.333,0.41 -0.707,0.785 -1.117,1.117l0.432,1.345c-0.479,0.344 -0.991,0.64 -1.529,0.882l-0.949,-1.046c-0.493,0.189 -1.004,0.326 -1.526,0.408l-0.299,1.381c-0.587,0.059 -1.178,0.059 -1.765,0l-0.299,-1.381c-0.521,-0.082 -1.032,-0.219 -1.525,-0.408l-0.95,1.046c-0.537,-0.242 -1.049,-0.538 -1.528,-0.882l0.432,-1.345c-0.411,-0.332 -0.785,-0.707 -1.117,-1.117l-1.346,0.432c-0.344,-0.479 -0.64,-0.99 -0.883,-1.528l1.048,-0.949c-0.19,-0.493 -0.327,-1.004 -0.409,-1.525l-1.382,-0.299c-0.059,-0.586 -0.059,-1.177 -0,-1.764l1.382,-0.299c0.082,-0.521 0.219,-1.032 0.409,-1.525l-1.048,-0.949c0.243,-0.537 0.539,-1.049 0.883,-1.528l1.346,0.432c0.332,-0.41 0.706,-0.784 1.117,-1.116l-0.432,-1.346c0.479,-0.344 0.991,-0.64 1.528,-0.882l0.95,1.047c0.493,-0.189 1.004,-0.326 1.525,-0.409l0.299,-1.381Zm0.883,3.331c-3.041,0 -5.509,2.468 -5.509,5.507c-0,3.039 2.468,5.507 5.509,5.507c3.04,0 5.509,-2.468 5.509,-5.507c-0,-3.039 -2.469,-5.507 -5.509,-5.507Z" style="fill:#fff;"/><path d="M87.501,101.374c0.469,-0.045 0.941,-0.045 1.409,-0l0.239,1.066c0.416,0.064 0.824,0.17 1.218,0.316l0.758,-0.809c0.429,0.188 0.838,0.416 1.22,0.682l-0.345,1.038c0.328,0.257 0.626,0.545 0.892,0.862l1.074,-0.333c0.275,0.369 0.511,0.764 0.705,1.179l-0.836,0.733c0.151,0.38 0.26,0.775 0.326,1.177l1.103,0.231c0.047,0.453 0.047,0.909 0,1.362l-1.103,0.231c-0.066,0.402 -0.175,0.796 -0.326,1.177l0.836,0.733c-0.194,0.414 -0.43,0.81 -0.705,1.179l-1.074,-0.333c-0.266,0.316 -0.564,0.605 -0.892,0.861l0.345,1.039c-0.382,0.266 -0.791,0.494 -1.22,0.681l-0.758,-0.808c-0.394,0.146 -0.802,0.252 -1.218,0.316l-0.239,1.066c-0.468,0.045 -0.94,0.045 -1.409,-0l-0.238,-1.066c-0.417,-0.064 -0.825,-0.17 -1.218,-0.316l-0.758,0.808c-0.429,-0.187 -0.838,-0.415 -1.221,-0.681l0.345,-1.039c-0.327,-0.256 -0.626,-0.545 -0.891,-0.861l-1.075,0.333c-0.275,-0.369 -0.511,-0.765 -0.704,-1.179l0.836,-0.733c-0.151,-0.381 -0.261,-0.775 -0.327,-1.177l-1.103,-0.231c-0.046,-0.453 -0.046,-0.909 0,-1.362l1.103,-0.231c0.066,-0.402 0.176,-0.797 0.327,-1.177l-0.836,-0.733c0.193,-0.415 0.429,-0.81 0.704,-1.179l1.075,0.333c0.265,-0.317 0.564,-0.605 0.891,-0.862l-0.345,-1.038c0.383,-0.266 0.792,-0.494 1.221,-0.682l0.758,0.809c0.393,-0.146 0.801,-0.252 1.218,-0.316l0.238,-1.066Zm0.705,2.572c-2.428,-0 -4.398,1.905 -4.398,4.251c-0,2.346 1.97,4.251 4.398,4.251c2.427,0 4.398,-1.905 4.398,-4.251c-0,-2.346 -1.971,-4.251 -4.398,-4.251Z" style="fill:#fff;"/><path d="M61.284,87.529c0.59,-0.057 1.185,-0.057 1.775,-0l0.301,1.344c0.524,0.08 1.039,0.213 1.534,0.397l0.956,-1.018c0.541,0.236 1.056,0.523 1.538,0.858l-0.435,1.309c0.413,0.323 0.789,0.687 1.123,1.086l1.354,-0.42c0.347,0.465 0.644,0.963 0.888,1.486l-1.053,0.924c0.19,0.479 0.328,0.976 0.411,1.483l1.39,0.291c0.059,0.57 0.059,1.145 0,1.716l-1.39,0.291c-0.083,0.507 -0.221,1.004 -0.411,1.483l1.053,0.923c-0.244,0.523 -0.541,1.021 -0.888,1.487l-1.354,-0.42c-0.334,0.399 -0.71,0.762 -1.123,1.085l0.435,1.31c-0.482,0.334 -0.997,0.622 -1.538,0.858l-0.956,-1.019c-0.495,0.184 -1.01,0.317 -1.534,0.398l-0.301,1.344c-0.59,0.057 -1.185,0.057 -1.775,-0l-0.301,-1.344c-0.525,-0.081 -1.039,-0.214 -1.534,-0.398l-0.956,1.019c-0.541,-0.236 -1.056,-0.524 -1.538,-0.858l0.435,-1.31c-0.413,-0.323 -0.789,-0.686 -1.123,-1.085l-1.355,0.42c-0.346,-0.466 -0.643,-0.964 -0.887,-1.487l1.053,-0.923c-0.19,-0.479 -0.328,-0.976 -0.411,-1.483l-1.39,-0.291c-0.059,-0.571 -0.059,-1.146 -0,-1.716l1.39,-0.291c0.083,-0.507 0.221,-1.004 0.411,-1.483l-1.053,-0.924c0.244,-0.523 0.541,-1.021 0.887,-1.486l1.355,0.42c0.334,-0.399 0.71,-0.763 1.123,-1.086l-0.435,-1.309c0.482,-0.335 0.997,-0.622 1.538,-0.858l0.956,1.018c0.495,-0.184 1.009,-0.317 1.534,-0.397l0.301,-1.344Zm0.887,3.241c-3.058,-0 -5.542,2.4 -5.542,5.357c0,2.956 2.484,5.357 5.542,5.357c3.059,-0 5.543,-2.401 5.543,-5.357c-0,-2.957 -2.484,-5.357 -5.543,-5.357Z" style="fill:#fff;"/><path d="M76.94,60.821c-19.408,-0 -35.164,15.802 -35.164,35.267c-0,19.464 15.756,35.266 35.164,35.266c19.408,0 35.164,-15.802 35.164,-35.266c0,-19.465 -15.756,-35.267 -35.164,-35.267Zm-0,6.939c15.589,0 28.245,12.693 28.245,28.328c-0,15.634 -12.656,28.327 -28.245,28.327c-15.589,-0 -28.245,-12.693 -28.245,-28.327c0,-15.635 12.656,-28.328 28.245,-28.328Z" style="fill:#fff;"/></svg>