<?xml version="1.0" encoding="UTF-8" standalone="no"?><!DOCTYPE svg PUBLIC "-//W3C//DTD SVG 1.1//EN" "http://www.w3.org/Graphics/SVG/1.1/DTD/svg11.dtd"><svg width="100%" height="100%" viewBox="0 0 56 89" version="1.1" xmlns="http://www.w3.org/2000/svg" xmlns:xlink="http://www.w3.org/1999/xlink" xml:space="preserve" xmlns:serif="http://www.serif.com/" style="fill-rule:evenodd;clip-rule:evenodd;stroke-linejoin:round;stroke-miterlimit:2;"><g><path d="M40.708,0c-0.302,0 -0.547,0.325 -0.547,0.725l0,87.187c0,0.4 0.245,0.725 0.547,0.725l1.095,0c0.302,0 0.547,-0.325 0.547,-0.725l-0,-87.187c-0,-0.4 -0.245,-0.725 -0.547,-0.725l-1.095,0Z" style="fill:#fff;"/><path d="M53.521,23.307c-0.302,-0 -0.548,0.325 -0.548,0.725l0,40.574c0,0.4 0.246,0.724 0.548,0.724l1.094,0c0.302,0 0.547,-0.324 0.547,-0.724l0,-40.574c0,-0.4 -0.245,-0.725 -0.547,-0.725l-1.094,-0Z" style="fill:#fff;"/><path d="M34.94,23.307c0.302,-0 0.547,0.325 0.547,0.725l-0,40.574c-0,0.4 -0.245,0.724 -0.547,0.724l-1.095,0c-0.302,0 -0.547,-0.324 -0.547,-0.724l0,-40.574c0,-0.4 0.245,-0.725 0.547,-0.725l1.095,-0Z" style="fill:#fff;"/><path d="M47.711,9.585c-0.302,0 -0.547,0.325 -0.547,0.725l0,68.017c0,0.4 0.245,0.725 0.547,0.725l1.095,-0c0.302,-0 0.547,-0.325 0.547,-0.725l-0,-68.017c-0,-0.4 -0.245,-0.725 -0.547,-0.725l-1.095,0Z" style="fill:#fff;"/><path d="M28.709,70.989c-2.214,2.764 -4.429,2.456 -6.643,0c-4.596,-6.639 -10.96,-9.95 -18.982,-10.141c-4.156,-11.02 -4.068,-22.039 -0,-33.059c8.022,-0.191 14.386,-3.502 18.982,-10.141c2.214,-2.455 4.429,-2.764 6.643,0l0,53.341Z" style="fill:#fff;"/></g></svg>